<?xml version="1.0" encoding="UTF-8"?>
<svg id="Layer_1" data-name="Layer 1" xmlns="http://www.w3.org/2000/svg" viewBox="0 0 25.9 26.12">
  <defs>
    <style>
      .cls-1 {
        fill: #fff;
      }

      .cls-2 {
        fill: #00adee;
      }
    </style>
  </defs>
  <path class="cls-1" d="m25.12,13.81h-10.67c-.43,0-.78.35-.78.78v10.73c0,.5.45.87.94.77,2.63-.53,9.98-2.77,11.29-11.39.07-.47-.3-.89-.78-.89Z"/>
  <path class="cls-1" d="m.79,12.3h10.67c.43.01.79-.34.79-.77V.79c.01-.5-.44-.87-.93-.77C8.68.55,1.33,2.78,0,11.4c-.07.47.3.89.78.89Z"/>
  <path class="cls-1" d="m.79,13.81h10.67c.43,0,.78.35.78.78v10.73c0,.5-.45.87-.94.77C8.68,25.57,1.33,23.33.02,14.71c-.07-.47.3-.89.78-.89Z"/>
  <path class="cls-2" d="m14.45,0h10.67c.43,0,.78.35.78.78v10.73c0,.5-.45.87-.94.77-2.63-.53-9.98-2.77-11.29-11.39C13.6.42,13.97,0,14.45,0Z"/>
</svg>